<svg id="Capa_1" enable-background="new 0 0 497 497" height="512" viewBox="0 0 497 497" width="512" xmlns="http://www.w3.org/2000/svg"><g><path d="m296.815 133.959 101.847 101.838 34.555-34.555-101.838-101.838h-34.564z" fill="#c7c5cb"/><path d="m34.587 139.463c0 37.273 14.516 72.307 40.87 98.66l43.939 43.949 34.565-34.555-43.949-43.949c-17.126-17.126-26.549-39.892-26.549-64.105s9.423-46.979 26.549-64.105c35.347-35.337 92.854-35.347 128.201 0l58.602 58.602 34.565-34.555-58.602-58.602c-54.399-54.399-142.922-54.408-197.321 0-26.354 26.353-40.87 61.387-40.87 98.66z" fill="#6a647f"/><path d="m153.961 247.517-43.949-43.949c-.014-.013-.026-.028-.039-.041-16.271 5.304-31.336 13.094-44.811 23.105 3.201 3.985 6.629 7.825 10.295 11.491l43.939 43.949z" fill="#4f4c5f"/><path d="m372.112 345.044c19.648 29.863 34.144 66.745 39.198 112.228 2.141 19.316-12.903 36.246-32.346 36.246h-262.608l-84.633-140.693c0-56.735 37.605-106.598 92.16-122.189l6.442-1.838c14.145-4.047 28.827-5.582 43.372-4.614l92.983 64.92z" fill="#f9d888"/><path d="m94.541 405.661-32.818-55.645c0-57.867 37.605-108.725 92.16-124.628l4.428-1.289c-9.432.516-18.822 2.076-27.987 4.698l-6.442 1.838c-54.555 15.591-92.16 65.454-92.16 122.189l31.783 52.836h31.036z" fill="#ffbe73"/><circle cx="104.81" cy="405.661" fill="#6a647f" r="91.339"/><circle cx="104.81" cy="405.661" fill="#ececec" r="45.558"/><path d="m173.697 224.184v30.557c0 17.449 10.997 32.952 27.409 38.866 26.276 9.462 56.901 24.184 84.232 46.784 5.963 4.936 11.564 10.068 16.803 15.406 16.149 16.422 42.502 16.715 58.788.43l11.183-11.183c-48.103-73.118-127.047-104.222-173.909-116.793-8.055-2.161-16.256-3.52-24.506-4.067z" fill="#6a647f"/><g><g><path d="m353.259 452.16c-4.142 0-7.5-3.358-7.5-7.5v-11.73c0-4.142 3.358-7.5 7.5-7.5s7.5 3.358 7.5 7.5v11.73c0 4.142-3.358 7.5-7.5 7.5z" fill="#423e4f"/></g><g><path d="m231.17 452.16c-4.142 0-7.5-3.358-7.5-7.5v-11.73c0-4.142 3.358-7.5 7.5-7.5s7.5 3.358 7.5 7.5v11.73c0 4.142-3.358 7.5-7.5 7.5z" fill="#423e4f"/></g><g><path d="m292.214 459.143c-8.336 0-16.263-3.61-21.748-9.905-2.721-3.123-2.396-7.86.727-10.582 3.122-2.721 7.859-2.396 10.582.727 2.636 3.024 6.441 4.759 10.439 4.759s7.804-1.735 10.44-4.76c2.722-3.124 7.459-3.448 10.582-.726s3.448 7.459.726 10.582c-5.486 6.295-13.412 9.905-21.748 9.905z" fill="#423e4f"/></g></g><path d="m361.054 221.144 57.506-57.506c16.945-16.945 44.418-16.945 61.363 0 4.809 4.809 4.809 12.605 0 17.414l-101.455 101.455c-4.809 4.809-12.605 4.809-17.414 0-16.945-16.945-16.945-44.418 0-61.363z" fill="#f9d888"/><path d="m398.468 262.507c-4.809 4.809-12.605 4.809-17.414 0-16.945-16.945-16.945-44.418 0-61.363l-20 20c-16.945 16.945-16.945 44.418 0 61.363 4.809 4.809 12.605 4.809 17.414 0z" fill="#ffbe73"/></g></svg>