<svg id="Capa_1" enable-background="new 0 0 512 512" height="512" viewBox="0 0 512 512" width="512" xmlns="http://www.w3.org/2000/svg"><g><g><path d="m363.187 512h-289.301l-26.016-10.406v-491.187l26.016-10.407h289.301c22.989 0 41.626 18.637 41.626 41.626v428.748c0 22.989-18.637 41.626-41.626 41.626z" fill="#e28086"/><path d="m32.26 0c-5.747 0-10.407 4.659-10.407 10.407v491.187c0 5.747 4.659 10.406 10.407 10.406h41.626v-512z" fill="#9dc6fb"/><path d="m363.187 0h-22.894c22.989 0 41.626 18.637 41.626 41.626v428.748c0 22.989-18.637 41.626-41.626 41.626h22.894c22.989 0 41.626-18.637 41.626-41.626v-428.748c0-22.989-18.637-41.626-41.626-41.626z" fill="#dd636e"/><path d="m128 179.097v-104.275c0-5.69 4.612-10.302 10.302-10.302h187.526c5.69 0 10.302 4.612 10.302 10.302v104.274c0 5.69-4.612 10.302-10.302 10.302h-187.526c-5.69 0-10.302-4.612-10.302-10.301z" fill="#f9f6f9"/></g><path d="m483.554 483.558-10.535 21.071c-1.519 3.037-5.853 3.037-7.371 0l-10.535-21.071c-4.335-8.67-6.592-18.23-6.592-27.924v-391.114h41.626v391.114c-.001 9.693-2.258 19.254-6.593 27.924z" fill="#818181"/><path d="m473.496 64.52v391.114c0 9.693-2.257 19.254-6.592 27.923l-5.896 11.792 4.64 9.279c1.519 3.037 5.853 3.037 7.371 0l10.535-21.071c4.335-8.67 6.592-18.23 6.592-27.924v-391.113z" fill="#595959"/><path d="m458.822 0h21.022c5.69 0 10.302 4.612 10.302 10.302v54.218h-41.626v-54.218c0-5.69 4.613-10.302 10.302-10.302z" fill="#9dc6fb"/><path d="m473.496 0v64.52h16.65v-54.218c0-5.69-4.612-10.302-10.302-10.302z" fill="#80b4fb"/><g><path d="m302.829 110.751h-141.528c-4.267 0-7.726-3.459-7.726-7.726s3.459-7.726 7.726-7.726h141.529c4.267 0 7.726 3.459 7.726 7.726 0 4.266-3.459 7.726-7.727 7.726z" fill="#818181"/></g><g><path d="m302.829 158.621h-141.528c-4.267 0-7.726-3.459-7.726-7.726s3.459-7.726 7.726-7.726h141.529c4.267 0 7.726 3.459 7.726 7.726s-3.459 7.726-7.727 7.726z" fill="#818181"/></g><g><path d="m284.098 421.905h-104.065c-4.267 0-7.726-3.459-7.726-7.726s3.459-7.726 7.726-7.726h104.065c4.267 0 7.726 3.459 7.726 7.726s-3.459 7.726-7.726 7.726z" fill="#9dc6fb"/></g><g><path d="m284.098 455.206h-104.065c-4.267 0-7.726-3.459-7.726-7.726s3.459-7.726 7.726-7.726h104.065c4.267 0 7.726 3.459 7.726 7.726s-3.459 7.726-7.726 7.726z" fill="#9dc6fb"/></g></g></svg>