<svg id="Layer_1" enable-background="new 0 0 512 512" height="512" viewBox="0 0 512 512" width="512" xmlns="http://www.w3.org/2000/svg"><g><g><g><g id="XMLID_1301_"><g id="XMLID_1302_"><g id="XMLID_1303_"><g id="XMLID_1304_"><g id="XMLID_1305_"><g id="XMLID_1306_"><g id="XMLID_1307_"><g id="XMLID_1308_"><g id="XMLID_1309_"><g id="XMLID_1310_"><g id="XMLID_1311_"><g id="XMLID_1312_"><g id="XMLID_1313_"><g id="XMLID_1314_"><g id="XMLID_1315_"><circle cx="256" cy="256" fill="#ff5b99" r="256"/></g></g></g></g></g></g></g></g></g></g></g></g></g></g></g></g></g><path d="m73.988 415.823 70.841 70.841c33.622 16.234 71.333 25.336 111.171 25.336 141.385 0 256-114.615 256-256 0-39.253-8.846-76.436-24.636-109.683l-45.717-45.716z" fill="#d83a82"/><g><g><path d="m451.242 199.302h-113.325v-113.325h72.371c22.618 0 40.954 18.336 40.954 40.954z" fill="#aaa"/><g><path d="m191.703 85.977c-15.308 0-29.294 6.726-39.955 16.076-12.662 11.114-20.656 26.366-20.656 44.534l-.068 218.813c0 33.477.068 60.622.068 60.622h157.016c33.477 0 60.69-27.146 60.69-60.622v-218.812c0-33.477 27.134-60.611 60.611-60.611z" fill="#efefef"/></g><g><path d="m409.41 85.98c-33.48 0-60.61 27.13-60.61 60.61v218.81c0 33.4-27.09 60.49-60.45 60.62v-340.04z" fill="#dbdbdb"/></g><g><g><path d="m175.938 346.543h128.965v31.524h-128.965z" fill="#655665"/></g></g><g><g><path d="m175.938 277.864h128.965v31.524h-128.965z" fill="#655665"/></g></g><g><g><path d="m175.938 209.184h128.965v31.524h-128.965z" fill="#655665"/></g></g><g><g><path d="m175.938 140.505h128.965v31.524h-128.965z" fill="#655665"/></g></g><g><path d="m244.919 382.988v-54.187h-186.161v54.187c0 23.768 19.267 43.035 43.035 43.035h186.161c-23.768 0-43.035-19.267-43.035-43.035z" fill="#dbdbdb"/></g></g><g><path d="m288.35 140.51h16.55v31.52h-16.55z" fill="#392c3a"/></g><g><path d="m287.95 426.02h-43.03v-43.03c0 23.77 19.27 43.03 43.03 43.03z" fill="#dbdbdb"/></g><g><path d="m288.35 346.54h16.55v31.53h-16.55z" fill="#392c3a"/></g><g><path d="m288.35 277.86h16.55v31.53h-16.55z" fill="#392c3a"/></g><g><path d="m288.35 209.18h16.55v31.53h-16.55z" fill="#392c3a"/></g></g></g></svg>