<svg id="Capa_1" enable-background="new 0 0 512 512" height="512" viewBox="0 0 512 512" width="512" xmlns="http://www.w3.org/2000/svg"><g><g><g><g><g><g><g><path d="m328.21 477.634v-443.268c0-16.685-13.525-30.21-30.21-30.21h-231.897l-16.771 9.272v485.145l16.771 9.272h231.897c16.685-.001 30.21-13.526 30.21-30.211z" fill="#4073c8"/><path d="m356.377 4.156h-67.305c16.685 0 30.21 13.525 30.21 30.21v443.268c0 16.685-13.526 30.21-30.21 30.21h67.305c16.684 0 30.21-13.525 30.21-30.21v-443.268c0-16.685-13.525-30.21-30.21-30.21z" fill="#3b66c1"/><path d="m66.103 4.156h-35.893c-16.684 0-30.21 13.525-30.21 30.21v443.268c0 16.685 13.526 30.21 30.21 30.21h35.892v-503.688z" fill="#407093"/></g></g></g><g><g><path d="m310.233 192.14c-3.871 0-7.323-2.459-8.561-6.127-1.139-3.373-2.498-6.645-4.061-9.798-1.722-3.475-1.029-7.66 1.713-10.402l.003-.003c3.534-3.534 3.534-9.264 0-12.797l-14.531-14.531c-3.534-3.534-9.264-3.534-12.797 0l-.003.003c-2.742 2.742-6.927 3.435-10.402 1.713-3.153-1.562-6.425-2.921-9.798-4.061-3.668-1.238-6.127-4.69-6.127-8.561 0-4.998-4.051-9.049-9.049-9.049h-20.55c-4.998 0-9.049 4.051-9.049 9.049 0 3.871-2.459 7.323-6.127 8.561-3.373 1.139-6.645 2.498-9.798 4.061-3.475 1.722-7.66 1.029-10.402-1.713l-.003-.003c-3.534-3.534-9.264-3.534-12.797 0l-14.531 14.531c-3.534 3.534-3.534 9.264 0 12.797l.003.003c2.742 2.742 3.435 6.927 1.713 10.402-1.562 3.153-2.921 6.425-4.061 9.798-1.238 3.668-4.69 6.127-8.561 6.127-4.998 0-9.049 4.051-9.049 9.049v20.55c0 4.998 4.051 9.049 9.049 9.049 3.871 0 7.323 2.459 8.561 6.127 1.139 3.373 2.498 6.645 4.061 9.798 1.722 3.475 1.029 7.66-1.713 10.402l-.003.003c-3.534 3.534-3.534 9.264 0 12.797l14.531 14.531c3.534 3.534 9.264 3.534 12.797 0l.003-.003c2.742-2.742 6.927-3.435 10.402-1.713 3.153 1.562 6.425 2.922 9.798 4.061 3.668 1.238 6.127 4.69 6.127 8.561 0 4.998 4.051 9.049 9.049 9.049h20.55c4.998 0 9.049-4.051 9.049-9.049 0-3.871 2.459-7.323 6.127-8.561 3.373-1.139 6.645-2.498 9.798-4.061 3.475-1.722 7.66-1.029 10.402 1.713l.003.003c3.534 3.534 9.264 3.534 12.797 0l14.531-14.531c3.534-3.534 3.534-9.264 0-12.797l-.003-.003c-2.742-2.742-3.435-6.927-1.713-10.402 1.562-3.153 2.922-6.425 4.061-9.798 1.238-3.668 4.69-6.127 8.561-6.127 4.998 0 9.049-4.051 9.049-9.049v-20.55c0-4.998-4.051-9.049-9.049-9.049zm-83.888 58.634c-21.711 0-39.311-17.6-39.311-39.311s17.6-39.311 39.311-39.311 39.311 17.6 39.311 39.311-17.6 39.311-39.311 39.311z" fill="#f2f9ff"/></g><g><g><path d="m311.544 360.009h-170.398c-4.267 0-7.726-3.459-7.726-7.726 0-4.268 3.459-7.726 7.726-7.726h170.398c4.268 0 7.726 3.459 7.726 7.726.001 4.267-3.458 7.726-7.726 7.726z" fill="#ffe07d"/></g><g><path d="m311.544 405.053h-170.398c-4.267 0-7.726-3.459-7.726-7.726s3.459-7.726 7.726-7.726h170.398c4.268 0 7.726 3.459 7.726 7.726s-3.458 7.726-7.726 7.726z" fill="#ffe07d"/></g></g></g></g><g><g><g><g><path d="m448.544 62.281h36.72v240.826h-36.72z" fill="#4a80aa"/></g><path d="m476.05 4.156h-18.292c-2.99 0-5.63 1.951-6.508 4.809l-10.476 34.102c-1.387 4.515-1.233 9.363.438 13.78l7.331 19.381h36.72l7.331-19.381c1.671-4.418 1.825-9.265.438-13.78l-10.474-34.102c-.878-2.858-3.518-4.809-6.508-4.809z" fill="#5c90b9"/><g><path d="m507.596 451.727v-64.1c0-2.463 1.96-4.456 4.404-4.535v-15.076c0-7.431-3.705-14.27-9.689-18.676-1.977-1.455-3.688-3.189-5.098-5.126-3.741-5.139 6.282-12.355 6.279-12.355h.003l-8.492-2.716h-57.175l-7.51 2.716h-.003.003.029c-.032 0 10.047 7.278 6.242 12.405-1.399 1.885-3.086 3.578-5.014 5.019-6.009 4.488-9.766 11.362-9.766 18.862v111.012c0 15.844 12.844 28.687 28.687 28.687h32.817c15.844 0 28.687-12.844 28.687-28.687v-22.895c-2.444-.079-4.404-2.072-4.404-4.535z" fill="#e28086"/><g><path d="m512 323.35v-14.288c0-4.699-3.809-8.508-8.508-8.508h-73.175c-4.699 0-8.508 3.809-8.508 8.508v14.288c0 4.699 3.809 8.508 8.508 8.508h.029 73.146c4.699.001 8.508-3.809 8.508-8.508z" fill="#da4a54"/></g></g></g></g><path d="m471.454 456.277h40.546v-73.199h-40.546c-2.513 0-4.55 2.037-4.55 4.55v64.1c0 2.512 2.037 4.549 4.55 4.549z" fill="#eab14d"/></g></g></g><g><g><path d="m226.345 258.501c-25.937 0-47.037-21.101-47.037-47.037s21.101-47.037 47.037-47.037 47.037 21.101 47.037 47.037-21.1 47.037-47.037 47.037zm0-78.622c-17.416 0-31.585 14.169-31.585 31.585s14.169 31.585 31.585 31.585 31.585-14.169 31.585-31.585-14.169-31.585-31.585-31.585z" fill="#98b9d3"/></g></g></g></svg>