<?xml version="1.0" encoding="iso-8859-1"?>
<!-- Generator: Adobe Illustrator 16.0.0, SVG Export Plug-In . SVG Version: 6.00 Build 0)  -->
<!DOCTYPE svg PUBLIC "-//W3C//DTD SVG 1.1//EN" "http://www.w3.org/Graphics/SVG/1.1/DTD/svg11.dtd">
<svg version="1.1" id="Capa_1" xmlns="http://www.w3.org/2000/svg" xmlns:xlink="http://www.w3.org/1999/xlink" x="0px" y="0px"
	 width="490.327px" height="490.327px" viewBox="0 0 490.327 490.327" style="enable-background:new 0 0 490.327 490.327;"
	 xml:space="preserve">
<g>
	<path d="M169.763,226.096c-22.979,0-41.606,18.618-41.606,41.606V389.05c0,22.97,18.627,41.607,41.606,41.607h6.197
		c22.979,0,41.606-18.628,41.606-41.606V267.702c0-22.979-18.628-41.606-41.606-41.606H169.763z"/>
	<path d="M306.144,430.657h6.196c22.979,0,41.606-18.628,41.606-41.606V198.355c0-22.969-18.628-41.606-41.606-41.606h-6.196
		c-22.979,0-41.606,18.628-41.606,41.606v190.696C264.537,412.02,283.165,430.657,306.144,430.657z"/>
	<path d="M448.72,430.657c22.979,0,41.607-18.628,41.607-41.606V101.276c0-22.969-18.628-41.606-41.607-41.606h-6.205
		c-22.97,0-41.598,18.628-41.598,41.606v287.774c0,22.969,18.628,41.606,41.598,41.606H448.72L448.72,430.657z"/>
	<path d="M47.812,275.782h-6.197C18.637,275.782,0,294.41,0,317.389v71.661c0,22.97,18.637,41.607,41.616,41.607h6.197
		c22.969,0,41.606-18.628,41.606-41.606v-71.662C89.419,294.41,70.782,275.782,47.812,275.782z"/>
</g>
<g>
</g>
<g>
</g>
<g>
</g>
<g>
</g>
<g>
</g>
<g>
</g>
<g>
</g>
<g>
</g>
<g>
</g>
<g>
</g>
<g>
</g>
<g>
</g>
<g>
</g>
<g>
</g>
<g>
</g>
</svg>
