<?xml version="1.0" encoding="utf-8"?>
<!-- Generator: Adobe Illustrator 25.1.0, SVG Export Plug-In . SVG Version: 6.00 Build 0)  -->
<svg version="1.1" id="Capa_1" xmlns="http://www.w3.org/2000/svg" xmlns:xlink="http://www.w3.org/1999/xlink" x="0px" y="0px"
	 viewBox="0 0 386.6 386.6" style="enable-background:new 0 0 386.6 386.6;" xml:space="preserve">
<g>
	<path d="M347.9,284.3v-22.1h18.7c11,0,20-9,20-20v-97.9c0-11-9-20-20-20h-18.7v-22.1c0-16.5-13.5-30-30-30H30
		c-16.5,0-30,13.5-30,30v182c0,16.5,13.5,30,30,30h287.9C334.4,314.3,347.9,300.9,347.9,284.3z M30,102.3h287.9v182l-287.9,0
		L30,102.3L30,102.3z"/>
	<rect x="52.9" y="127.4" width="242.3" height="131.8"/>
</g>
</svg>
