<?xml version="1.0" encoding="utf-8"?>
<!-- Generator: Adobe Illustrator 25.2.1, SVG Export Plug-In . SVG Version: 6.00 Build 0)  -->
<svg version="1.1" id="Layer_1" xmlns="http://www.w3.org/2000/svg" xmlns:xlink="http://www.w3.org/1999/xlink" x="0px" y="0px"
	 viewBox="0 0 330 330" style="enable-background:new 0 0 330 330;" xml:space="preserve">
<path id="XMLID_197_" d="M305.2,44.5L305.2,44.5c-9.5-9.5-22.2-14.8-35.6-14.8c-13.5,0-26.1,5.2-35.6,14.8L62.2,216.3
	c-11.8,11.8-11.8,31,0,42.7c11.8,11.8,31,11.8,42.7,0l144.7-144.7c3.9-3.9,3.9-10.3,0-14.2s-10.3-3.9-14.2,0L90.7,244.8
	c-3.9,3.9-10.3,3.9-14.2,0c-3.9-3.9-3.9-10.3,0-14.2L248.3,58.8c5.7-5.7,13.3-8.9,21.4-8.9c8.1,0,15.7,3.1,21.4,8.9
	c11.8,11.8,11.8,31,0,42.7L112.1,280.4c-19.6,19.6-51.6,19.6-71.2,0c-9.5-9.5-14.8-22.2-14.8-35.6c0-13.5,5.2-26.1,14.8-35.6
	L219.8,30.3c3.9-3.9,3.9-10.3,0-14.2s-10.3-3.9-14.2,0L26.6,194.9C13.3,208.2,6,226,6,244.8c0,18.8,7.3,36.5,20.7,49.9
	c27.5,27.5,72.2,27.5,99.7,0l178.9-178.9C324.9,96.1,324.9,64.1,305.2,44.5z"/>
</svg>
