<?xml version="1.0" encoding="utf-8"?>
<!-- Generator: Adobe Illustrator 25.1.0, SVG Export Plug-In . SVG Version: 6.00 Build 0)  -->
<svg version="1.1" id="Capa_1" xmlns="http://www.w3.org/2000/svg" xmlns:xlink="http://www.w3.org/1999/xlink" x="0px" y="0px"
	 viewBox="0 0 512 512" style="enable-background:new 0 0 512 512;" xml:space="preserve">
<style type="text/css">
	.st0{fill:#FFFFFF;}
</style>
<path class="st0" d="M256,0C114.9,0,0,114.9,0,256c0,141.2,114.9,256,256,256c141.2,0,256-114.8,256-256C512,114.9,397.2,0,256,0z
	 M355.1,274h-79.3v79.3c0,11-8.9,19.8-19.8,19.8c-10.9,0-19.8-8.9-19.8-19.8V274h-79.3c-10.9,0-19.8-8.9-19.8-19.8
	s8.9-19.8,19.8-19.8h79.3v-79.3c0-10.9,8.9-19.8,19.8-19.8c10.9,0,19.8,8.9,19.8,19.8v79.3h79.3c11,0,19.8,8.9,19.8,19.8
	S366.1,274,355.1,274z"/>
</svg>
