<?xml version="1.0" encoding="utf-8"?>
<!-- Generator: Adobe Illustrator 25.2.1, SVG Export Plug-In . SVG Version: 6.00 Build 0)  -->
<svg version="1.1" id="Capa_1" xmlns="http://www.w3.org/2000/svg" xmlns:xlink="http://www.w3.org/1999/xlink" x="0px" y="0px"
	 viewBox="0 0 512 512" style="enable-background:new 0 0 512 512;" xml:space="preserve">
<style type="text/css">
	.st0{fill:#FFFFFF;}
</style>
<g>
	<g>
		<path class="st0" d="M481.5,210.3L68.4,38.9c-17.4-7.2-37.1-4-51.3,8.3C2.9,59.5-3.1,78.6,1.6,96.8L38.3,241h180
			c8.3,0,15,6.7,15,15c0,8.3-6.7,15-15,15h-180L1.6,415.2c-4.7,18.3,1.3,37.3,15.5,49.6c14.3,12.4,33.9,15.5,51.3,8.3l413.1-171.4
			c18.8-7.8,30.5-25.3,30.5-45.7S500.3,218.1,481.5,210.3z"/>
	</g>
</g>
</svg>
