<svg id="Capa_1" enable-background="new 0 0 512.004 512.004" height="512" viewBox="0 0 512.004 512.004" width="512" xmlns="http://www.w3.org/2000/svg"><g><path d="m493.972 32.508-475.926-.015c-6.607 0-11.786 3.233-14.869 7.812l9.545 20.041 202.642 164.199 294.223-182.996c-3.026-5.27-8.665-9.041-15.615-9.041z" fill="#ff7e92"/><path d="m509.587 41.549-295.414 169.578-210.996-170.823c-4.842 7.181-4.517 17.668 3.542 24.19l192.092 155.45 56.529 259.526c5.486-.371 10.86-3.213 14.178-8.896l240.002-410.981c3.505-6.001 3.093-12.772.067-18.044z" fill="#ff5f7a"/><path d="m198.81 219.945 37.361 244.271c1.57 10.265 10.512 15.835 19.168 15.254l-41.166-268.344z" fill="#fb4455"/></g></svg>