<?xml version="1.0" encoding="utf-8"?>
<!-- Generator: Adobe Illustrator 25.1.0, SVG Export Plug-In . SVG Version: 6.00 Build 0)  -->
<svg version="1.1" id="Capa_1" xmlns="http://www.w3.org/2000/svg" xmlns:xlink="http://www.w3.org/1999/xlink" x="0px" y="0px"
	 viewBox="0 0 645 472" style="enable-background:new 0 0 645 472;" xml:space="preserve">
<style type="text/css">
	.st0{fill:#FFFFFF;}
</style>
<g>
	<g>
		<g>
			<path class="st0" d="M219.1,466.1c-7,0-13.5-2.7-18.4-7.7L25.3,282.7C12.9,270.3,6,253.8,6,236.2c0-17.7,6.8-34.3,19.3-46.8
				L200.6,13.6C205.5,8.7,212,6,219,6s13.5,2.7,18.4,7.6c10.1,10.1,10.1,26.6,0,36.8L62.1,226.1c-5.5,5.5-5.5,14.4,0,19.8
				l175.3,175.8c10.1,10.1,10.1,26.6,0,36.8C232.5,463.4,226,466.1,219.1,466.1z"/>
			<path class="st0" d="M219,12c5.1,0,10.2,1.9,14.1,5.8c7.8,7.8,7.8,20.5,0,28.3L57.9,221.8c-7.8,7.8-7.8,20.5,0,28.3L233.2,426
				c7.8,7.8,7.8,20.5,0,28.3c-3.9,3.9-9,5.8-14.1,5.8c-5.2,0-10.3-2-14.2-5.9L29.6,278.4c-23.4-23.3-23.4-61.4,0-84.8L204.9,17.8
				C208.8,13.9,213.9,12,219,12 M219,0c-8.6,0-16.6,3.3-22.6,9.4L21.1,185.2C7.5,198.8,0,216.9,0,236.2c0,19.2,7.5,37.3,21.1,50.8
				l175.3,175.7c6.1,6.1,14.1,9.4,22.7,9.4c8.6,0,16.6-3.3,22.6-9.3c12.5-12.5,12.5-32.8,0-45.3L66.3,241.7c-3.1-3.1-3.1-8.2,0-11.3
				L241.6,54.6c12.5-12.5,12.5-32.8,0-45.3C235.6,3.3,227.6,0,219,0L219,0z"/>
		</g>
	</g>
</g>
<g>
	<g>
		<g>
			<path class="st0" d="M250,262.1c-14.3,0-26-11.7-26-26s11.7-26,26-26h363c14.3,0,26,11.7,26,26s-11.7,26-26,26H250z"/>
			<path class="st0" d="M613,216c11,0,20,9,20,20s-9,20-20,20H250c-11,0-20-9-20-20s9-20,20-20H613 M613,204H250
				c-17.6,0-32,14.4-32,32s14.4,32,32,32h363c17.6,0,32-14.4,32-32S630.6,204,613,204L613,204z"/>
		</g>
	</g>
</g>
</svg>
