<?xml version="1.0" encoding="utf-8"?>
<!-- Generator: Adobe Illustrator 25.2.1, SVG Export Plug-In . SVG Version: 6.00 Build 0)  -->
<svg version="1.1" id="Capa_1" xmlns="http://www.w3.org/2000/svg" xmlns:xlink="http://www.w3.org/1999/xlink" x="0px" y="0px"
	 viewBox="0 0 512 512" style="enable-background:new 0 0 512 512;" xml:space="preserve">
<style type="text/css">
	.st0{fill:#FFFFFF;}
</style>
<g>
	<g>
		<path class="st0" d="M472,365.9h-14.9v-18.8c0-44.6-36.2-80.8-80.8-80.8H345h-70.7v-69.6h44.7c22,0,40-17.9,40-40v-97
			c0-22-17.9-40-40-40H199.6c-22,0-40,17.9-40,40v97c0,22,17.9,40,40,40h44.7v69.6h-69.7h-38.3c-44.6,0-80.8,36.2-80.8,80.8v18.8H40
			c-22,0-40,17.9-40,40v46.5c0,22,17.9,40,40,40h61.2c22,0,40-17.9,40-40v-46.5c0-22-17.9-40-40-40H85.6v-18.8
			c0-28,22.8-50.8,50.8-50.8h38.3h69.7v69.6h-15.6c-22,0-40,17.9-40,40v46.5c0,22,17.9,40,40,40h61.2c22,0,40-17.9,40-40v-46.5
			c0-22-17.9-40-40-40h-15.6v-69.6H345h31.3c28,0,50.8,22.8,50.8,50.8v18.8h-16.2c-22,0-40,17.9-40,40v46.5c0,22,17.9,40,40,40H472
			c22,0,40-17.9,40-40v-46.5C512,383.8,494.1,365.9,472,365.9z M101.1,395.9c5.5,0,10,4.5,10,10v46.5c0,5.5-4.5,10-10,10H40
			c-5.5,0-10-4.5-10-10v-46.5c0-5.5,4.5-10,10-10H101.1z M289.9,395.9c5.5,0,10,4.5,10,10v46.5c0,5.5-4.5,10-10,10h-61.2
			c-5.5,0-10-4.5-10-10v-46.5c0-5.5,4.5-10,10-10H289.9z M199.6,166.6c-5.5,0-10-4.5-10-10v-97c0-5.5,4.5-10,10-10H319
			c5.5,0,10,4.5,10,10v97c0,5.5-4.5,10-10,10L199.6,166.6L199.6,166.6z M482,452.4c0,5.5-4.5,10-10,10h-61.2c-5.5,0-10-4.5-10-10
			v-46.5c0-5.5,4.5-10,10-10H472c5.5,0,10,4.5,10,10V452.4z"/>
	</g>
</g>
</svg>
