<?xml version="1.0" encoding="iso-8859-1"?>
<!-- Generator: Adobe Illustrator 16.0.0, SVG Export Plug-In . SVG Version: 6.00 Build 0)  -->
<!DOCTYPE svg PUBLIC "-//W3C//DTD SVG 1.1//EN" "http://www.w3.org/Graphics/SVG/1.1/DTD/svg11.dtd">
<svg version="1.1" id="Capa_1" xmlns="http://www.w3.org/2000/svg" xmlns:xlink="http://www.w3.org/1999/xlink" x="0px" y="0px"
	 width="31.674px" height="31.674px" viewBox="0 0 31.674 31.674" style="enable-background:new 0 0 31.674 31.674;"
	 xml:space="preserve">
<g>
	<g>
		<path d="M29.292,6.196c-0.072-1.571-0.732-3.055-1.857-4.18l-0.151-0.153C26.098,0.679,24.473,0,22.823,0
			c-1.512,0-2.906,0.562-3.93,1.584l-2.336,2.337l-0.393-0.394c-0.53-0.529-1.388-0.529-1.917,0L14.003,3.77
			c-0.529,0.53-0.529,1.388,0,1.917l0.393,0.393l0,0l0,0l-7.258,7.259c-1.156,1.156-1.634,2.611-1.379,4.209
			c0.129,0.805-0.139,1.629-0.725,2.215c-1.394,1.395-1.506,3.25-0.266,4.592c-0.688,0.961-2.393,3.461-2.393,4.643
			c0,1.477,1.198,2.676,2.676,2.676c1.477,0,2.675-1.199,2.675-2.676c0-0.927-1.051-2.669-1.836-3.839
			c0.358,0.151,0.742,0.229,1.138,0.229c0.888,0,1.776-0.4,2.503-1.127l0.084-0.084c0.531-0.531,1.306-0.783,2.06-0.652
			c0.303,0.053,0.6,0.078,0.889,0.078c1.273,0,2.446-0.5,3.392-1.445l7.258-7.258l0.394,0.395c0.529,0.529,1.387,0.529,1.918,0
			l0.244-0.244c0.528-0.531,0.528-1.388,0-1.917l-0.396-0.393l2.337-2.336C28.805,9.312,29.367,7.817,29.292,6.196z M18.5,3.971
			c0.336,0,0.607,0.271,0.607,0.608c0,0.336-0.271,0.608-0.607,0.608c-0.335,0-0.607-0.272-0.607-0.608
			C17.893,4.242,18.166,3.971,18.5,3.971z M14.341,20.557c-0.523,0.521-1.103,0.791-1.774,0.791l0,0c-0.163,0-0.329-0.029-0.5-0.06
			C10.562,21.027,9.062,21.51,8,22.568L7.917,22.65c-0.494,0.492-0.96,0.664-1.461,0.162c-0.535-0.534-0.105-1.125,0.208-1.439
			c1.092-1.093,1.599-2.656,1.355-4.184c-0.138-0.867,0.104-1.598,0.738-2.231l7.015-7.015l5.612,5.566L14.341,20.557z M25.465,2.7
			c-0.148,0.279-0.496,0.383-0.775,0.231c-2.301-1.241-4.099,0.524-4.172,0.6c-0.113,0.113-0.262,0.168-0.408,0.168
			s-0.291-0.055-0.401-0.164c-0.224-0.221-0.229-0.582-0.008-0.807c0.841-0.857,3.075-2.129,5.532-0.804
			C25.512,2.075,25.616,2.422,25.465,2.7z"/>
		<path d="M11.471,13.508l-1.419,1.418c-1.131,1.13-1.131,2.966,0,4.095l0.226,0.227c1.131,1.131,2.965,1.131,4.096,0l4.077-4.074
			L11.471,13.508z"/>
	</g>
</g>
<g>
</g>
<g>
</g>
<g>
</g>
<g>
</g>
<g>
</g>
<g>
</g>
<g>
</g>
<g>
</g>
<g>
</g>
<g>
</g>
<g>
</g>
<g>
</g>
<g>
</g>
<g>
</g>
<g>
</g>
</svg>
