<?xml version="1.0" encoding="utf-8"?>
<!-- Generator: Adobe Illustrator 25.2.1, SVG Export Plug-In . SVG Version: 6.00 Build 0)  -->
<svg version="1.1" id="Capa_1" xmlns="http://www.w3.org/2000/svg" xmlns:xlink="http://www.w3.org/1999/xlink" x="0px" y="0px"
	 viewBox="0 0 524 490" style="enable-background:new 0 0 524 490;" xml:space="preserve">
<path d="M507.5,384.5c10.9-23.7,16.5-49.1,16.5-75.5c0-46.7-17.9-91.1-50.5-125c-31.4-32.7-73.3-52.3-118.3-55.6
	c-5.4-17.7-13.3-34.3-23.7-49.5c-11-16-24.4-30.1-39.8-41.9C276.2,25.2,259,16,240.6,9.7C221.7,3.3,202,0,182,0C81.6,0,0,81.2,0,181
	c0,26.4,5.5,51.8,16.5,75.5L0.4,336.9c-1.2,6.2,0.3,12.5,4.3,17.4c4,4.9,9.9,7.7,16.2,7.7c1.4,0,2.8-0.1,4.1-0.4l81.4-16.1
	c19.7,9.1,40.6,14.5,62.3,16c11.4,37.5,33.9,69.5,65.5,92.8c31.2,23,69.6,35.7,108.2,35.7c26.1,0,51.3-5.6,75.1-16.5
	c20.4,4,35.8,7.1,47.4,9.4c35.9,7.1,35.9,7.1,37.4,7.1c0.2,0,0.4,0,0.6,0l0,0c6.3,0,12.2-2.8,16.2-7.7c4-4.9,5.6-11.2,4.4-17.4
	L507.5,384.5z M465,385.8l11.3,56.4l-57.4-11.4c-1.3-0.3-2.7-0.4-4.1-0.4c-3.3,0-6.6,0.8-9.6,2.3C385.5,442.9,364.3,448,342,448
	c-76.6,0-139-62.4-139-139s62.4-139,139-139c77.2,0,140,62.4,140,139c0,22.3-5.1,43.5-15.1,63.2C464.7,376.4,464,381.2,465,385.8z
	 M161.3,318.5c-14.8-2.2-29-6.8-42.4-13.6c-2.9-1.5-6.3-2.3-9.6-2.3c-1.4,0-2.7,0.1-4.1,0.4l-57.4,11.4L59,257.9
	c0.9-4.6,0.3-9.5-1.9-13.7C47.1,224.5,42,203.3,42,181c0-76.6,62.8-139,140-139c57.7,0,108.9,35.3,129.6,88.6
	c-20.6,3.5-40.2,10.5-58.5,20.8c-19.9,11.3-37.3,26-51.7,43.8C173,230.2,158.9,273.7,161.3,318.5z"/>
</svg>
