<?xml version="1.0" encoding="utf-8"?>
<!-- Generator: Adobe Illustrator 25.2.1, SVG Export Plug-In . SVG Version: 6.00 Build 0)  -->
<svg version="1.1" id="Layer_1" xmlns="http://www.w3.org/2000/svg" xmlns:xlink="http://www.w3.org/1999/xlink" x="0px" y="0px"
	 viewBox="0 0 330.7 330.7" style="enable-background:new 0 0 330.7 330.7;" xml:space="preserve">
<style type="text/css">
	.st0{fill:#FFFFFF;}
</style>
<g id="XMLID_105_">
	<path id="XMLID_106_" class="st0" d="M175.9,218.4l-42.4,42.4l0,0l0,0c-17.5,17.5-46.1,17.5-63.6,0c-8.5-8.5-13.2-19.8-13.2-31.8
		s4.7-23.3,13.2-31.8l0,0l42.4-42.5c5.9-5.9,5.9-15.4,0-21.2c-5.9-5.9-15.4-5.9-21.2,0l-42.4,42.4l0,0c-14.2,14.2-22,33-22,53
		s7.8,38.9,22,53c14.6,14.6,33.8,21.9,53,21.9s38.4-7.3,53-21.9l0,0l0,0l42.4-42.4c5.9-5.9,5.9-15.4,0-21.2
		C191.3,212.5,181.8,212.5,175.9,218.4z"/>
	<path id="XMLID_107_" class="st0" d="M304,101.7c0-20-7.8-38.9-22-53c-29.2-29.2-76.8-29.2-106.1,0l0,0l-42.4,42.4
		c-5.9,5.9-5.9,15.4,0,21.2c2.9,2.9,6.8,4.4,10.6,4.4c3.8,0,7.7-1.5,10.6-4.4l42.4-42.4l0,0c17.5-17.5,46.1-17.5,63.6,0
		c8.5,8.5,13.2,19.8,13.2,31.8s-4.7,23.3-13.2,31.8l0,0l-42.4,42.4c-5.9,5.9-5.9,15.4,0,21.2c2.9,2.9,6.8,4.4,10.6,4.4
		s7.7-1.5,10.6-4.4l42.4-42.4l0,0C296.2,140.6,304,121.7,304,101.7z"/>
	<path id="XMLID_108_" class="st0" d="M112.3,218.4c2.9,2.9,6.8,4.4,10.6,4.4c3.8,0,7.7-1.5,10.6-4.4l84.9-84.9
		c5.9-5.9,5.9-15.4,0-21.2c-5.9-5.9-15.4-5.9-21.2,0l-84.9,84.9C106.4,203,106.4,212.5,112.3,218.4z"/>
</g>
</svg>
